<svg width="201" height="201" viewBox="0 0 201 201" fill="none" xmlns="http://www.w3.org/2000/svg">
<circle cx="100.5" cy="100.5" r="100.5" fill="#DBD8CB"/>
<path d="M125.975 123.975L146 144" stroke="black" stroke-width="1.5" stroke-linecap="round" stroke-linejoin="round"/>
<path d="M137.1 95.05C137.1 84.4281 132.88 74.2412 125.37 66.7304C117.859 59.2195 107.672 55 97.05 55C86.4281 55 76.2412 59.2195 68.7304 66.7304C61.2195 74.2412 57 84.4281 57 95.05C57 105.672 61.2195 115.859 68.7304 123.37C76.2412 130.88 86.4281 135.1 97.05 135.1C107.672 135.1 117.859 130.88 125.37 123.37C132.88 115.859 137.1 105.672 137.1 95.05Z" stroke="black" stroke-width="1.5" stroke-linejoin="round"/>
<path d="M77.0254 108.4L85.2223 83.8095C85.428 83.1958 85.8214 82.6623 86.3468 82.2843C86.8722 81.9063 87.5031 81.7029 88.1504 81.7029C88.7976 81.7029 89.4285 81.9063 89.954 82.2843C90.4794 82.6623 90.8727 83.1958 91.0785 83.8095L99.2754 108.4M112.625 81.7002V108.4M81.4754 99.5002H94.8254" stroke="black" stroke-width="1.5" stroke-linecap="round" stroke-linejoin="round"/>
</svg>
