<svg width="201" height="201" viewBox="0 0 201 201" fill="none" xmlns="http://www.w3.org/2000/svg">
<circle cx="100.5" cy="100.5" r="100.5" fill="#DBD8CB"/>
<path d="M135.42 91.75H135.421C137.607 91.75 139.983 93.6106 141.222 96.5674C142.111 98.6899 142.19 100.926 141.504 102.552C141.055 103.615 140.32 104.352 139.391 104.724L139.387 104.726L139.38 104.729C138.953 104.894 138.499 104.98 138.041 104.979C135.855 104.979 133.479 103.119 132.24 100.162C131.407 98.1721 131.284 96.0824 131.838 94.4893L131.957 94.1777C132.406 93.1144 133.14 92.3736 134.064 92.0059L134.072 92.0039L134.079 92.001C134.506 91.8348 134.961 91.7494 135.42 91.75ZM169.573 91.75C170.032 91.7495 170.488 91.8349 170.915 92.001L170.922 92.0039L170.924 92.0049H170.925C171.853 92.3756 172.587 93.1149 173.039 94.1797C173.726 95.8028 173.651 98.039 172.772 100.158C171.527 103.119 169.15 104.979 166.961 104.979C166.502 104.98 166.046 104.895 165.619 104.729L165.616 104.728L165.604 104.723C164.734 104.374 164.034 103.704 163.58 102.746L163.492 102.55C162.806 100.928 162.887 98.6899 163.777 96.5674V96.5664C164.961 93.7375 167.206 91.9002 169.319 91.7588L169.523 91.75H169.573ZM159.175 82.5C159.34 82.5 159.506 82.512 159.669 82.5361H159.67C160.924 82.7199 161.98 83.5748 162.665 84.9072C163.351 86.2411 163.646 88.0279 163.362 89.9727C163.122 91.6065 162.493 93.1117 161.607 94.2148C160.613 95.4532 159.394 96.0858 158.188 96.0859C158.023 96.0859 157.858 96.074 157.694 96.0498H157.693C156.44 95.8668 155.383 95.0129 154.698 93.6807C154.012 92.3468 153.717 90.5594 154.001 88.6143H154.002C154.238 86.9791 154.869 85.4725 155.756 84.3701H155.757C156.749 83.135 157.97 82.502 159.175 82.5ZM145.824 82.502C146.953 82.5021 148.097 83.058 149.054 84.1455L149.243 84.3701C150.13 85.4725 150.762 86.9787 150.999 88.6123V88.6133C151.283 90.5592 150.988 92.3467 150.302 93.6807C149.617 95.0131 148.56 95.8668 147.307 96.0498H147.306C147.142 96.074 146.977 96.0849 146.812 96.085C145.607 96.0848 144.387 95.4532 143.393 94.2148V94.2139C142.506 93.1103 141.874 91.6061 141.638 89.9756V89.9746C141.354 88.0286 141.648 86.2412 142.334 84.9072C143.019 83.5748 144.076 82.721 145.329 82.5381H145.33C145.494 82.5139 145.659 82.502 145.824 82.502ZM137.303 113.198C137.298 112.502 137.427 111.811 137.684 111.163L137.688 111.151C138.259 109.6 139.483 108.704 140.881 107.848L141.489 107.48C142.798 106.699 144.15 105.902 145.093 104.528L145.276 104.245C146.49 102.251 147.418 100.734 148.498 99.7002C149.543 98.6993 150.732 98.1533 152.5 98.1533C154.268 98.1534 155.455 98.6986 156.499 99.6992C157.308 100.475 158.031 101.522 158.853 102.839L159.714 104.245C160.539 105.6 161.748 106.421 162.969 107.161L163.492 107.475C165.134 108.455 166.641 109.373 167.293 111.147L167.296 111.154L167.298 111.161C167.558 111.809 167.69 112.5 167.688 113.196V113.198C167.687 116.137 165.39 118.496 162.606 118.496C161.106 118.496 159.501 117.981 157.692 117.398H157.693C156.001 116.849 154.143 116.242 152.509 116.242C150.874 116.242 149.012 116.849 147.313 117.398C145.502 117.984 143.889 118.5 142.394 118.5C139.605 118.5 137.303 116.14 137.303 113.202V113.198Z" fill="#FEFCF6" stroke="#052217"/>
<line x1="86.2261" y1="43.554" x2="157.226" y2="79.554" stroke="#052217" stroke-dasharray="2 2"/>
<line x1="86.3852" y1="53.6812" x2="134.385" y2="111.681" stroke="#052217" stroke-dasharray="2 2"/>
<path d="M84.2088 157.121H11.7921C11.2101 157.121 10.6519 156.89 10.2404 156.478C9.82885 156.067 9.59766 155.509 9.59766 154.927V32.0377C9.59766 31.4557 9.82885 30.8975 10.2404 30.486C10.6519 30.0745 11.2101 29.8433 11.7921 29.8433H84.2088C84.7908 29.8433 85.3489 30.0745 85.7605 30.486C86.172 30.8975 86.4032 31.4557 86.4032 32.0377V154.927C86.4032 155.509 86.172 156.067 85.7605 156.478C85.3489 156.89 84.7908 157.121 84.2088 157.121Z" fill="#FEFCF6"/>
<path d="M74.4084 135.694H21.5925C21.0303 135.694 20.4911 135.471 20.0935 135.074C19.696 134.676 19.4727 134.137 19.4727 133.575V45.6477C19.4727 44.4758 20.4228 43.5278 21.5925 43.5278H74.4084C75.5802 43.5278 76.5282 44.4758 76.5282 45.6477V133.575C76.5282 134.137 76.3049 134.676 75.9073 135.074C75.5098 135.471 74.9706 135.694 74.4084 135.694Z" fill="#FEFCF6"/>
<path d="M74.4084 135.694H21.5925C21.0303 135.694 20.4911 135.471 20.0935 135.074C19.696 134.676 19.4727 134.137 19.4727 133.575V45.6477C19.4727 44.4758 20.4228 43.5278 21.5925 43.5278H74.4084C75.5802 43.5278 76.5282 44.4758 76.5282 45.6477V133.575C76.5282 134.137 76.3049 134.676 75.9073 135.074C75.5098 135.471 74.9706 135.694 74.4084 135.694Z" stroke="#052217" stroke-width="0.5" stroke-miterlimit="10" stroke-linecap="round" stroke-linejoin="round"/>
<path d="M64.6046 85.3937C64.2114 84.4743 63.5583 83.8114 62.7152 83.4776L62.7039 83.4734C62.3202 83.3256 61.9116 83.2499 61.4996 83.2503H61.4542C59.5245 83.2789 57.5543 84.8925 56.5526 87.2659C55.8179 89.0014 55.7336 90.868 56.3273 92.2593C56.7198 93.1793 57.3744 93.8422 58.2209 94.1761L58.2301 94.1795C58.6139 94.3273 59.0224 94.403 59.4345 94.4026C61.3827 94.4026 63.3734 92.789 64.3935 90.3843C65.1189 88.6508 65.199 86.7856 64.6046 85.3937ZM56.894 95.63C55.7811 94.972 54.7291 94.3496 54.0419 93.2316C52.1461 90.1369 51.0013 88.2689 47.9997 88.2689C44.9981 88.2689 43.8504 90.1369 41.9504 93.2316C41.2618 94.351 40.2077 94.9741 39.0912 95.6349C37.811 96.3919 36.4884 97.1739 35.9174 98.7129C35.6954 99.2677 35.5835 99.8592 35.588 100.455C35.588 102.961 37.5716 105 40.0086 105C41.2661 105 42.6043 104.571 44.0204 104.118C45.382 103.681 46.7897 103.23 48.0068 103.23C49.2239 103.23 50.628 103.681 51.9846 104.118C53.3979 104.569 54.7298 104.997 55.9908 104.997C58.4243 104.997 60.4043 102.958 60.4043 100.453C60.4063 99.856 60.2921 99.2645 60.0678 98.7101C59.4968 97.1697 58.1735 96.387 56.894 95.63ZM40.4903 85.8188C41.3334 86.8595 42.4031 87.4324 43.5026 87.4324C43.6527 87.4324 43.8026 87.4215 43.951 87.3997C46.2442 87.0679 47.6731 84.3147 47.2041 81.1265C47.0079 79.7862 46.4837 78.5378 45.7327 77.6122C44.8911 76.5736 43.8199 76.0014 42.7212 76.0014C42.5711 76.0014 42.4212 76.0124 42.2727 76.0342C39.9795 76.3659 38.5506 79.1191 39.0196 82.3073C39.2151 83.6456 39.7394 84.8925 40.4903 85.8188ZM52.0491 87.3997C52.1975 87.4215 52.3474 87.4324 52.4975 87.4324C53.5977 87.4324 54.6667 86.8595 55.5098 85.8188C56.26 84.8925 56.7814 83.6456 56.9798 82.3059C57.4487 79.1191 56.0198 76.3659 53.7267 76.0328C53.5782 76.011 53.4283 76 53.2782 76C52.1794 76.0014 51.1083 76.5736 50.2667 77.6122C49.5157 78.5378 48.9915 79.7862 48.796 81.1279C48.327 84.3147 49.7559 87.0679 52.0491 87.3997ZM37.7692 94.1795L37.7792 94.1761C38.6243 93.8422 39.2782 93.18 39.67 92.2607C40.2636 90.8666 40.18 89.0021 39.4468 87.2665C38.4316 84.8646 36.4416 83.2503 34.4956 83.2503C34.0835 83.2498 33.6749 83.3254 33.2912 83.4734L33.2813 83.4769C32.4383 83.808 31.7844 84.4729 31.3926 85.3923C30.799 86.7863 30.8826 88.6508 31.6158 90.3864C32.631 92.7883 34.621 94.4026 36.567 94.4026C36.9784 94.4029 37.3862 94.3272 37.7692 94.1795Z" fill="#31C48D"/>
</svg>
