<?xml version="1.0" standalone="no"?>
<!DOCTYPE svg PUBLIC "-//W3C//DTD SVG 20010904//EN"
 "http://www.w3.org/TR/2001/REC-SVG-20010904/DTD/svg10.dtd">
<svg version="1.0" xmlns="http://www.w3.org/2000/svg"
 width="512.000000pt" height="512.000000pt" viewBox="0 0 512.000000 512.000000"
 preserveAspectRatio="xMidYMid meet">

<g transform="translate(0.000000,512.000000) scale(0.100000,-0.100000)"
fill="#052217" stroke="none">
<path d="M1317 4624 c-424 -77 -748 -404 -822 -829 -23 -131 -23 -2339 0
-2470 38 -217 127 -389 284 -545 157 -156 331 -247 550 -285 125 -22 2337 -22
2462 0 434 76 758 400 834 834 12 69 15 226 15 888 0 780 -1 805 -20 842 -56
111 -216 114 -277 5 -23 -39 -23 -40 -23 -532 l0 -492 -252 202 c-139 111
-277 217 -306 235 -213 128 -501 102 -680 -61 -30 -28 -108 -111 -175 -185
-66 -75 -128 -144 -137 -154 -17 -18 -37 -1 -476 399 -253 229 -485 434 -516
454 -92 60 -184 85 -313 85 -175 0 -236 -27 -477 -206 -90 -67 -169 -126 -176
-132 -11 -8 -12 89 -10 534 l3 544 27 80 c39 113 92 199 174 280 83 82 168
135 279 173 l80 27 1052 5 c1047 5 1052 5 1080 26 98 73 98 195 0 268 -28 21
-30 21 -1065 23 -854 1 -1051 -1 -1115 -13z m268 -1952 c22 -11 246 -208 498
-437 l457 -416 -83 -94 c-46 -52 -250 -281 -453 -510 l-369 -417 -135 5 c-110
4 -150 9 -215 30 -109 36 -196 89 -279 172 -82 81 -135 167 -174 280 l-27 80
-3 450 -3 450 271 203 c149 112 287 210 308 217 51 20 156 14 207 -13z m1966
-447 c31 -11 156 -105 408 -306 l364 -291 -5 -132 c-9 -213 -67 -355 -203
-491 -82 -81 -168 -134 -280 -173 l-80 -27 -844 -3 c-805 -3 -843 -2 -830 15
64 80 1215 1366 1234 1379 67 44 158 55 236 29z"/>
<path d="M4095 4626 c-37 -17 -70 -52 -84 -89 -7 -18 -11 -140 -11 -329 l0
-301 -44 41 c-74 68 -161 69 -227 3 -41 -41 -55 -88 -44 -148 6 -32 36 -68
193 -226 103 -104 199 -195 214 -203 15 -8 45 -14 68 -14 23 0 53 6 68 14 15
8 111 99 214 203 157 158 187 194 193 226 11 60 -3 107 -44 148 -66 66 -153
65 -226 -3 l-44 -40 -3 315 c-3 301 -4 317 -24 343 -11 15 -32 37 -46 47 -34
25 -113 32 -153 13z"/>
<path d="M1910 4032 c-64 -24 -160 -122 -183 -187 -68 -195 59 -401 264 -430
90 -13 213 35 274 107 113 133 104 322 -20 442 -82 80 -224 109 -335 68z"/>
</g>
</svg>
