<svg width="112" height="112" viewBox="0 0 112 112" fill="none" xmlns="http://www.w3.org/2000/svg">
<path d="M21.8963 6.90203C22.939 5.85317 24.179 5.021 25.5447 4.45346C26.9104 3.88592 28.375 3.59424 29.854 3.59522C31.333 3.59619 32.7971 3.88981 34.1621 4.45915C35.5271 5.02848 36.766 5.86229 37.8073 6.91253L37.8143 6.91953L105.175 74.2805C106.224 75.323 107.057 76.5628 107.625 77.9284C108.192 79.294 108.484 80.7585 108.484 82.2375C108.483 83.7165 108.19 85.1807 107.621 86.5458C107.052 87.9109 106.218 89.15 105.168 90.1915L105.161 90.1985L90.1393 105.221L90.1288 105.228C89.0879 106.277 87.8501 107.111 86.4865 107.681C85.1228 108.251 83.6601 108.546 82.182 108.55C80.7039 108.554 79.2396 108.266 77.873 107.704C76.5063 107.141 75.2642 106.313 74.2178 105.27L6.80779 37.8595C5.75893 36.8168 4.92676 35.5769 4.35922 34.2111C3.79169 32.8454 3.5 31.3808 3.50098 29.9018C3.50196 28.4229 3.79557 26.9587 4.36491 25.5937C4.93425 24.2287 5.76805 22.9899 6.81829 21.9485L21.8963 6.90203ZM31.9448 11.1545C31.1366 10.6925 30.1983 10.5107 29.276 10.6373C28.3537 10.7639 27.4991 11.1918 26.8453 11.8545L11.7463 26.9185C11.3506 27.3111 11.0368 27.7783 10.823 28.2931C10.6093 28.8079 10.4999 29.3601 10.5012 29.9175C10.5025 30.4749 10.6145 31.0265 10.8306 31.5402C11.0468 32.054 11.3628 32.5198 11.7603 32.9105L79.1703 100.321C79.9673 101.112 81.0459 101.554 82.1689 101.55C83.2919 101.546 84.3674 101.096 85.1588 100.3L85.1728 100.286L100.223 85.2355L100.24 85.2215C101.423 84.049 101.77 82.3445 101.248 80.85L96.2643 85.834C95.9361 86.1626 95.4909 86.3474 95.0265 86.3478C94.5621 86.3481 94.1166 86.1639 93.788 85.8358C93.4594 85.5076 93.2746 85.0624 93.2743 84.598C93.274 84.1336 93.4581 83.6881 93.7863 83.3595L99.0713 78.0745L92.8903 71.897L90.2303 74.648C89.9077 74.9822 89.4656 75.1746 89.0012 75.1828C88.5368 75.191 88.0882 75.0144 87.754 74.6918C87.4199 74.3692 87.2275 73.9271 87.2193 73.4627C87.2111 72.9983 87.3877 72.5497 87.7103 72.2155L90.4158 69.4225L84.6758 63.6825L79.3908 68.9675C79.0622 69.2957 78.6167 69.4798 78.1523 69.4795C77.6879 69.4792 77.2427 69.2944 76.9145 68.9658C76.5864 68.6372 76.4022 68.1917 76.4026 67.7273C76.4029 67.2629 76.5877 66.8177 76.9163 66.4895L82.2013 61.2045L76.1603 55.167L73.5003 57.918C73.1777 58.2522 72.7356 58.4445 72.2712 58.4528C71.8068 58.461 71.3582 58.2843 71.024 57.9618C70.6899 57.6392 70.4975 57.1971 70.4893 56.7327C70.4811 56.2683 70.6577 55.8197 70.9803 55.4855L73.6858 52.6925L67.9458 46.9525L62.6608 52.2375C62.3322 52.5657 61.8867 52.7498 61.4223 52.7495C60.9579 52.7492 60.5127 52.5644 60.1845 52.2358C59.8564 51.9072 59.6722 51.4617 59.6726 50.9973C59.6729 50.5329 59.8577 50.0877 60.1863 49.7595L65.4713 44.4745L59.4863 38.493L56.7913 41.2335C56.4615 41.5423 56.025 41.7116 55.5733 41.7059C55.1215 41.7002 54.6894 41.5201 54.3675 41.2031C54.0455 40.8861 53.8586 40.4569 53.8459 40.0053C53.8332 39.5536 53.9957 39.1146 54.2993 38.78L57.0153 36.0185L51.2508 30.2575L45.9658 35.5425C45.6372 35.8707 45.1917 36.0548 44.7273 36.0545C44.2629 36.0542 43.8177 35.8694 43.4895 35.5408C43.1614 35.2122 42.9772 34.7667 42.9776 34.3023C42.9779 33.8379 43.1627 33.3927 43.4913 33.0645L48.7763 27.7795L42.7668 21.77L40.1033 24.5C39.7789 24.8323 39.3357 25.0222 38.8713 25.0278C38.4069 25.0333 37.9594 24.8542 37.627 24.5298C37.2947 24.2054 37.1049 23.7622 37.0993 23.2978C37.0937 22.8334 37.2729 22.3858 37.5973 22.0535L40.2923 19.2955L34.5208 13.5275L29.2358 18.8125C29.0731 18.975 28.88 19.1038 28.6675 19.1917C28.455 19.2795 28.2272 19.3247 27.9973 19.3245C27.7674 19.3243 27.5397 19.2789 27.3273 19.1907C27.115 19.1026 26.922 18.9735 26.7595 18.8108C26.5971 18.6481 26.4682 18.455 26.3804 18.2425C26.2925 18.03 26.2474 17.8022 26.2476 17.5723C26.2477 17.3424 26.2932 17.1147 26.3813 16.9023C26.4695 16.6899 26.5986 16.497 26.7613 16.3345L31.9448 11.1545Z" fill="#052217"/>
</svg>
