<svg width="88" height="112" viewBox="0 0 88 112" fill="none" xmlns="http://www.w3.org/2000/svg">
<path d="M44 24.0002C40.0444 24.0002 36.1776 25.1732 32.8886 27.3709C29.5996 29.5685 27.0362 32.6921 25.5224 36.3467C24.0087 40.0013 23.6126 44.0226 24.3843 47.9023C25.156 51.7819 27.0608 55.3456 29.8579 58.1427C32.6549 60.9398 36.2186 62.8446 40.0982 63.6163C43.9778 64.3881 47.9991 63.992 51.6537 62.4782C55.3082 60.9645 58.4318 58.401 60.6294 55.112C62.827 51.8229 64 47.9561 64 44.0004C64 38.6961 61.8929 33.6089 58.1421 29.8582C54.3914 26.1074 49.3043 24.0002 44 24.0002ZM44 56.0006C41.6266 56.0006 39.3065 55.2968 37.3332 53.9782C35.3598 52.6596 33.8217 50.7854 32.9134 48.5927C32.0052 46.4 31.7676 43.9871 32.2306 41.6593C32.6936 39.3315 33.8365 37.1933 35.5147 35.5151C37.1929 33.8368 39.3311 32.6939 41.6589 32.2309C43.9867 31.7679 46.3995 32.0055 48.5922 32.9138C50.7849 33.822 52.6591 35.3601 53.9776 37.3335C55.2962 39.3069 56 41.627 56 44.0004C56 47.1831 54.7357 50.2353 52.4853 52.4858C50.2348 54.7363 47.1826 56.0006 44 56.0006ZM44 0C32.3345 0.0132338 21.1507 4.65323 12.9019 12.902C4.65318 21.1509 0.0132337 32.3349 0 44.0004C0 59.7006 7.255 76.3408 21 92.1259C27.1761 99.2588 34.1273 105.682 41.725 111.276C42.3976 111.747 43.1988 112 44.02 112C44.8412 112 45.6424 111.747 46.315 111.276C53.8987 105.679 60.8364 99.2565 67 92.1259C80.725 76.3408 88 59.7006 88 44.0004C87.9868 32.3349 83.3468 21.1509 75.0981 12.902C66.8493 4.65323 55.6655 0.0132338 44 0ZM44 103.001C35.735 96.501 8 72.6257 8 44.0004C8 34.4526 11.7928 25.2957 18.5442 18.5443C25.2955 11.793 34.4522 8.00008 44 8.00008C53.5478 8.00008 62.7045 11.793 69.4558 18.5443C76.2072 25.2957 80 34.4526 80 44.0004C80 72.6157 52.265 96.501 44 103.001Z" fill="#052217"/>
</svg>
